<svg version="1.1" xmlns="http://www.w3.org/2000/svg" xmlns:xlink="http://www.w3.org/1999/xlink"><defs><style type="text/css"></style><mask id="rg_0"><circle stroke="none" fill="#fff" cx="50" cy="50" r="40"></circle><circle stroke="none" fill="#fff" cx="90" cy="70" r="40"></circle><circle stroke="none" fill="#000" cx="70" cy="60" r="10"></circle></mask><path id="path_0" d="M 10,50L 13.044818699548529,34.692662705396415L 21.71572875253809,21.7157287525381L 34.69266270539639,13.044818699548543L 50,10L 65.3073372946036,13.044818699548536L 78.2842712474619,21.71572875253809L 84.54470244021155,31.085126152377995L 90,30L 105.3073372946036,33.04481869954854L 118.2842712474619,41.7157287525381L 126.95518130045147,54.69266270539639L 130,70L 126.95518130045147,85.3073372946036L 118.2842712474619,98.2842712474619L 105.3073372946036,106.95518130045147L 90,110L 74.69266270539642,106.95518130045147L 61.7157287525381,98.2842712474619L 55.455297559788455,88.914873847622L 50,90L 34.692662705396415,86.95518130045147L 21.7157287525381,78.2842712474619L 13.044818699548529,65.3073372946036L 10,50Z"></path><path id="path_1" d="M 60,60L 60.76120467488713,63.8268343236509L 62.928932188134524,67.07106781186548L 66.1731656763491,69.23879532511287L 70,70L 73.8268343236509,69.23879532511287L 77.07106781186548,67.07106781186548L 79.23879532511287,63.8268343236509L 80,60L 79.23879532511287,56.1731656763491L 77.07106781186548,52.928932188134524L 73.8268343236509,50.76120467488714L 70,50L 66.1731656763491,50.76120467488714L 62.928932188134524,52.928932188134524L 60.76120467488713,56.1731656763491L 60,60Z"></path></defs><g mask="url(#rg_0)"><rect fill="red" style="stroke: none" x="10" y="10" width="120" height="100"></rect></g><use stroke="#000" fill="none" xlink:href="#path_0"></use><use stroke="#000" fill="none" xlink:href="#path_1"></use></svg>